<svg xmlns="http://www.w3.org/2000/svg" width="19.241" height="24" viewBox="0 0 19.241 24">
  <g id="Delete" transform="translate(-1696 -117.493)">
    <path id="Path_34" data-name="Path 34" d="M62.678,2.875h-3.7a3.217,3.217,0,0,0-6.4,0h-3.7a2.733,2.733,0,0,0-2.718,2.742v.141a2.744,2.744,0,0,0,1.718,2.547V21.258A2.733,2.733,0,0,0,50.591,24H60.96a2.733,2.733,0,0,0,2.718-2.742V8.305A2.744,2.744,0,0,0,65.4,5.758V5.617A2.733,2.733,0,0,0,62.678,2.875ZM55.776,1.3a1.939,1.939,0,0,1,1.9,1.575H53.88A1.939,1.939,0,0,1,55.776,1.3Zm6.613,19.958A1.437,1.437,0,0,1,60.96,22.7H50.591a1.437,1.437,0,0,1-1.429-1.442V8.5H62.389Zm1.718-15.5A1.437,1.437,0,0,1,62.678,7.2h-13.8a1.437,1.437,0,0,1-1.429-1.442V5.617a1.437,1.437,0,0,1,1.429-1.442h13.8a1.437,1.437,0,0,1,1.429,1.442v.141Z" transform="translate(1649.845 117.493)" fill="#2d2d2d"/>
    <path id="Path_35" data-name="Path 35" d="M158.886,260.324a.811.811,0,0,0,.811-.811v-9.131a.811.811,0,1,0-1.622,0v9.131A.811.811,0,0,0,158.886,260.324Z" transform="translate(1543.343 -122.527)" fill="#2d2d2d"/>
    <path id="Path_36" data-name="Path 36" d="M228.956,260.324a.811.811,0,0,0,.811-.811v-9.131a.811.811,0,1,0-1.622,0v9.131A.811.811,0,0,0,228.956,260.324Z" transform="translate(1476.665 -122.527)" fill="#2d2d2d"/>
    <path id="Path_37" data-name="Path 37" d="M299.025,260.324a.811.811,0,0,0,.811-.811v-9.131a.811.811,0,1,0-1.622,0v9.131A.811.811,0,0,0,299.025,260.324Z" transform="translate(1409.987 -122.527)" fill="#2d2d2d"/>
  </g>
</svg>
