<svg xmlns="http://www.w3.org/2000/svg" width="22.508" height="24.5" viewBox="0 0 22.508 24.5">
  <path id="Flag" d="M20.186,10,24.43,3.826A.4.4,0,0,0,24.1,3.2h-12V1.6a.4.4,0,0,0-.4-.4H3.3V.4a.4.4,0,0,0-.8,0V23.6a.4.4,0,0,0,.8,0v-10H7.71a1.979,1.979,0,0,0-.41,1.2,2,2,0,0,0,2,2H24.1a.4.4,0,0,0,.33-.626ZM3.3,2h8V12.8h-8Zm6,14a1.2,1.2,0,1,1,0-2.4h2.4a.4.4,0,0,0,.4-.4V4H23.34L19.37,9.774a.4.4,0,0,0,0,.453L23.34,16Z" transform="translate(-2.25 0.25)" fill="#2d2d2d" stroke="#2d2d2d" stroke-width="0.5"/>
</svg>
