<svg xmlns="http://www.w3.org/2000/svg" width="28" height="28" viewBox="0 0 28 28">
  <g id="stats" transform="translate(0)">
    <path id="Path_18" data-name="Path 18" d="M25.763,0H2.237A2.24,2.24,0,0,0,0,2.237V25.763A2.24,2.24,0,0,0,2.237,28H25.763A2.24,2.24,0,0,0,28,25.763V2.237A2.24,2.24,0,0,0,25.763,0Zm.6,2.237V4.32H13.125V1.641H25.763a.6.6,0,0,1,.6.6ZM5.468,4.32V1.641H7.656V4.32ZM9.3,1.641h2.187V4.32H9.3Zm-7.06,0H3.828V4.32H1.64V2.237a.6.6,0,0,1,.6-.6ZM25.763,26.359H2.237a.6.6,0,0,1-.6-.6V5.961H26.359v19.8a.6.6,0,0,1-.6.6Zm0,0" fill="#848484"/>
    <path id="Path_19" data-name="Path 19" d="M84.285,196.117H66.136l3.115-3.582,2.925,1.746.139.028a1.059,1.059,0,0,0,.956-.29l.031-.031,4.164-5.175,2.584,1.717.118.035a1.059,1.059,0,0,0,1.1-.321l2.585-2.874a.82.82,0,1,0-1.22-1.1l-2.255,2.507-2.609-1.734-.118-.035a1.059,1.059,0,0,0-1.052.266l-.031.031L72.393,192.5l-2.907-1.735-.139-.028a1.063,1.063,0,0,0-1.006.344l-3.832,4.407a1.37,1.37,0,0,0,1.034,2.269H84.285a.82.82,0,0,0,0-1.641Zm0,0" transform="translate(-60.661 -175.828)" fill="#848484"/>
  </g>
</svg>
