<svg xmlns="http://www.w3.org/2000/svg" width="38" height="38" viewBox="0 0 38 38">
  <g id="Group_68" data-name="Group 68" transform="translate(-305 -898)">
    <circle id="Ellipse_6" data-name="Ellipse 6" cx="19" cy="19" r="19" transform="translate(305 898)" fill="#de241c"/>
    <g id="stats" transform="translate(314 907)">
      <path id="Path_18" data-name="Path 18" d="M18.4,0H1.6A1.6,1.6,0,0,0,0,1.6V18.4A1.6,1.6,0,0,0,1.6,20H18.4A1.6,1.6,0,0,0,20,18.4V1.6A1.6,1.6,0,0,0,18.4,0Zm.426,1.6V3.086H9.375V1.172H18.4a.427.427,0,0,1,.426.426ZM3.906,3.086V1.172H5.468V3.086ZM6.64,1.172H8.2V3.086H6.64Zm-5.043,0H2.734V3.086H1.172V1.6A.427.427,0,0,1,1.6,1.172ZM18.4,18.828H1.6a.427.427,0,0,1-.426-.426V4.258H18.828V18.4a.427.427,0,0,1-.426.426Zm0,0" fill="#fff" stroke="#fff" stroke-width="0.2"/>
      <path id="Path_19" data-name="Path 19" d="M78.781,192.865H65.6l2.262-2.431,2.125,1.185.1.019a.8.8,0,0,0,.694-.2l.023-.021,3.025-3.512,1.877,1.165.085.024a.8.8,0,0,0,.8-.218l1.877-1.95a.531.531,0,0,0-.045-.786.626.626,0,0,0-.841.042l-1.638,1.7-1.9-1.176-.085-.024a.807.807,0,0,0-.764.181l-.023.021-3.035,3.523-2.111-1.177-.1-.019a.8.8,0,0,0-.731.234l-2.783,2.991a.873.873,0,0,0-.155,1,.991.991,0,0,0,.906.544H78.781a.558.558,0,1,0,0-1.113Zm0,0" transform="translate(-61.789 -178.471)" fill="#fff" stroke="#fff" stroke-width="0.2"/>
    </g>
  </g>
</svg>
