<svg xmlns="http://www.w3.org/2000/svg" width="19.648" height="17.406" viewBox="0 0 19.648 17.406">
  <g id="Group_31" data-name="Group 31" transform="translate(0)">
    <g id="Group_30" data-name="Group 30">
      <path id="Reply_All" data-name="Reply All" d="M.221,71.491l7.557-7.253a.785.785,0,0,1,.824-.157.726.726,0,0,1,.467.67V68.4A10.865,10.865,0,0,1,19.255,77.65l.387,2.968a.722.722,0,0,1-.5.773.8.8,0,0,1-.252.042.765.765,0,0,1-.641-.341l-.76-1.169a9.56,9.56,0,0,0-8.071-4.292H9.069v3.626a.726.726,0,0,1-.467.67.786.786,0,0,1-.824-.157L.221,72.518A.707.707,0,0,1,.221,71.491Zm7.336,6.015v-2.6a.741.741,0,0,1,.756-.725H9.421a11.155,11.155,0,0,1,8.335,3.651,9.4,9.4,0,0,0-9.443-8,.741.741,0,0,1-.756-.725V66.5L1.825,72Z" transform="translate(0 -64.027)" fill="#2d2d2d"/>
    </g>
  </g>
</svg>
