<svg id="Group_34" data-name="Group 34" xmlns="http://www.w3.org/2000/svg" width="24" height="17.406" viewBox="0 0 24 17.406">
  <path id="Reply" d="M.219,71.47l7.5-7.254a.769.769,0,0,1,.817-.157.725.725,0,0,1,.463.67v3.626h2.25A12.559,12.559,0,0,1,24,80.685a.75.75,0,0,1-.75.725.756.756,0,0,1-.636-.341l-.225-.348a11.414,11.414,0,0,0-9.534-5.113H9v3.626a.725.725,0,0,1-.463.67.775.775,0,0,1-.817-.157L.219,72.5A.709.709,0,0,1,.219,71.47ZM7.5,77.484v-2.6a.738.738,0,0,1,.75-.725h4.6a13.053,13.053,0,0,1,9.319,3.927A11.2,11.2,0,0,0,11.25,69.806h-3a.738.738,0,0,1-.75-.725v-2.6l-5.689,5.5Z" transform="translate(0 -64.004)" fill="#2d2d2d"/>
</svg>
