<svg xmlns="http://www.w3.org/2000/svg" width="28" height="20.4" viewBox="0 0 28 20.4">
  <g id="Group_8" data-name="Group 8" transform="translate(-106 -234.679)">
    <g id="menu-options" transform="translate(106 234.679)">
      <g id="Group_7" data-name="Group 7" transform="translate(0 0)">
        <path id="Path_20" data-name="Path 20" d="M1.2,56.106H26.8a1.138,1.138,0,1,0,0-2.273H1.2a1.138,1.138,0,1,0,0,2.273Z" transform="translate(0 -53.833)" fill="#848484"/>
        <path id="Path_21" data-name="Path 21" d="M1.2,183.606H26.8a1.138,1.138,0,1,0,0-2.273H1.2a1.138,1.138,0,1,0,0,2.273Z" transform="translate(0 -172.27)" fill="#848484"/>
        <path id="Path_22" data-name="Path 22" d="M1.2,311.106H26.8a1.138,1.138,0,1,0,0-2.273H1.2a1.138,1.138,0,1,0,0,2.273Z" transform="translate(0 -290.706)" fill="#848484"/>
      </g>
    </g>
  </g>
</svg>
