<svg xmlns="http://www.w3.org/2000/svg" width="28.602" height="28.528" viewBox="0 0 28.602 28.528">
  <g id="home" transform="translate(0.301 -27.52)">
    <g id="Group_2" data-name="Group 2" transform="translate(-0.001 27.798)">
      <g id="Group_1" data-name="Group 1" transform="translate(0)">
        <path id="Path_1" data-name="Path 1" d="M27.7,38.981,14.429,27.957a.659.659,0,0,0-.859,0L.3,38.981A.9.9,0,0,0,.14,40.135a.673.673,0,0,0,1.017.178L14,29.646,26.842,40.313a.668.668,0,0,0,.429.159.7.7,0,0,0,.588-.338A.9.9,0,0,0,27.7,38.981Z" transform="translate(0.001 -27.797)" fill="#de221c" stroke="#de221c" stroke-width="0.5"/>
      </g>
    </g>
    <g id="Group_4" data-name="Group 4" transform="translate(3.502 40.184)">
      <g id="Group_3" data-name="Group 3" transform="translate(0 0)">
        <path id="Path_2" data-name="Path 2" d="M76.747,232.543a.77.77,0,0,0-.7.825v13.137h-5.6v-7.171c0-2.276-1.57-4.127-3.5-4.127s-3.5,1.851-3.5,4.127v7.171h-5.6V233.368a.709.709,0,1,0-1.4,0v13.963a.77.77,0,0,0,.7.825h7a.759.759,0,0,0,.7-.761c0-.019,0-.04,0-.064v-8a2.128,2.128,0,1,1,4.2,0v8c0,.024,0,.044,0,.064a.759.759,0,0,0,.7.762h7a.77.77,0,0,0,.7-.825V233.368A.77.77,0,0,0,76.747,232.543Z" transform="translate(-56.452 -232.543)" fill="#de221c" stroke="#de221c" stroke-width="0.5"/>
      </g>
    </g>
  </g>
</svg>
