<svg xmlns="http://www.w3.org/2000/svg" width="28.4" height="21.758" viewBox="0 0 28.4 21.758">
  <g id="envelope_2_" data-name="envelope (2)" transform="translate(0.2 -57.55)">
    <g id="Group_5" data-name="Group 5" transform="translate(0 57.75)">
      <path id="Path_3" data-name="Path 3" d="M24.582,57.75H3.424A3.431,3.431,0,0,0,0,61.182V75.676a3.431,3.431,0,0,0,3.424,3.432H24.576A3.431,3.431,0,0,0,28,75.676V61.188A3.427,3.427,0,0,0,24.582,57.75Zm1.86,17.926a1.864,1.864,0,0,1-1.86,1.864H3.424a1.864,1.864,0,0,1-1.86-1.864V61.188a1.864,1.864,0,0,1,1.86-1.864H24.576a1.864,1.864,0,0,1,1.86,1.864V75.676Z" transform="translate(0 -57.75)" fill="#848484" stroke="#848484" stroke-width="0.4"/>
      <path id="Path_4" data-name="Path 4" d="M70.171,116.431l6.843-6.155a.784.784,0,0,0-1.048-1.167l-9.437,8.5-1.841-1.649c-.006-.006-.012-.012-.012-.017a1.159,1.159,0,0,0-.127-.11L57.058,109.1a.785.785,0,0,0-1.042,1.173l6.924,6.208-6.9,6.475a.789.789,0,0,0-.035,1.109.8.8,0,0,0,.573.25.782.782,0,0,0,.533-.209l7-6.568,1.9,1.7a.778.778,0,0,0,1.042-.006l1.951-1.754,6.959,6.632a.782.782,0,0,0,1.106-.029.789.789,0,0,0-.029-1.109Z" transform="translate(-52.515 -105.932)" fill="#848484" stroke="#848484" stroke-width="0.4"/>
    </g>
  </g>
</svg>
