<svg xmlns="http://www.w3.org/2000/svg" width="38" height="38" viewBox="0 0 38 38">
  <g id="Policy_Renewal" data-name="Policy Renewal" transform="translate(-208 -783)">
    <circle id="Ellipse_14" data-name="Ellipse 14" cx="19" cy="19" r="19" transform="translate(208 783)" fill="#ee932a"/>
    <g id="recycle" transform="translate(217 792.501)">
      <path id="Path_41" data-name="Path 41" d="M109.525,8.2a.586.586,0,0,0-.829,0l-.288.288a8.745,8.745,0,0,0-14.9-5.43.586.586,0,0,0,.829.829,7.573,7.573,0,0,1,12.884,4.522l-.209-.209a.586.586,0,0,0-.829.829l1.256,1.256a.586.586,0,0,0,.829,0l1.256-1.256a.586.586,0,0,0,0-.829Zm0,0" transform="translate(-89.692 0)" fill="#fff" stroke="#fff" stroke-width="0.5"/>
      <path id="Path_42" data-name="Path 42" d="M15.357,199.87a7.573,7.573,0,0,1-12.884-4.522l.209.209a.586.586,0,1,0,.829-.829l-1.256-1.256a.586.586,0,0,0-.829,0L.171,194.728a.586.586,0,1,0,.829.829l.288-.288a8.745,8.745,0,0,0,14.9,5.43.586.586,0,0,0-.829-.829Zm0,0" transform="translate(0 -185.268)" fill="#fff" stroke="#fff" stroke-width="0.5"/>
    </g>
  </g>
</svg>
