<svg xmlns="http://www.w3.org/2000/svg" width="38" height="38" viewBox="0 0 38 38">
  <g id="Group_66" data-name="Group 66" transform="translate(-305 -674)">
    <circle id="Ellipse_4" data-name="Ellipse 4" cx="19" cy="19" r="19" transform="translate(305 674)" fill="#de241c"/>
    <g id="envelope_2_" data-name="envelope (2)" transform="translate(314 627.25)">
      <g id="Group_5" data-name="Group 5" transform="translate(0 57.75)">
        <path id="Path_3" data-name="Path 3" d="M17.558,57.75H2.446A2.451,2.451,0,0,0,0,60.2V70.554a2.451,2.451,0,0,0,2.446,2.451H17.554A2.451,2.451,0,0,0,20,70.554V60.206A2.448,2.448,0,0,0,17.558,57.75Zm1.328,12.8a1.331,1.331,0,0,1-1.328,1.331H2.446a1.331,1.331,0,0,1-1.328-1.331V60.206a1.331,1.331,0,0,1,1.328-1.331H17.554a1.331,1.331,0,0,1,1.328,1.331V70.554Z" transform="translate(0 -57.75)" fill="#fff" stroke="#fff" stroke-width="0.5"/>
        <path id="Path_4" data-name="Path 4" d="M64.814,113.453l4.3-3.72a.464.464,0,0,0,.036-.67.506.506,0,0,0-.695-.035l-5.931,5.135-1.157-1s-.007-.007-.007-.011a.722.722,0,0,0-.08-.067l-4.708-4.064a.5.5,0,0,0-.695.039.462.462,0,0,0,.04.67l4.352,3.752L55.936,117.4a.464.464,0,0,0-.022.67.511.511,0,0,0,.36.151.5.5,0,0,0,.335-.126l4.4-3.97,1.193,1.028a.5.5,0,0,0,.655,0l1.226-1.06,4.374,4.008a.505.505,0,0,0,.695-.018.464.464,0,0,0-.018-.67Z" transform="translate(-52.515 -105.932)" fill="#fff" stroke="#fff" stroke-width="0.5"/>
      </g>
    </g>
  </g>
</svg>
